<mxfile host="app.diagrams.net" modified="2022-04-29T01:16:06.418Z" agent="5.0 (Windows NT 10.0; Win64; x64) AppleWebKit/537.36 (KHTML, like Gecko) Chrome/99.0.4844.74 Safari/537.36 Edg/99.0.1150.55" etag="5axXpCNuAOigCj5TyRH3" version="17.5.0" type="github">
  <diagram id="EKKdwlQCzZ-ChAXuUHmZ" name="Page-1">
    <mxGraphModel dx="1422" dy="762" grid="1" gridSize="10" guides="1" tooltips="1" connect="1" arrows="1" fold="1" page="1" pageScale="1" pageWidth="1169" pageHeight="1654" math="0" shadow="0">
      <root>
        <mxCell id="0" />
        <mxCell id="1" value="Platform Capabilities" style="" parent="0" />
        <mxCell id="Nquj7XKxTz-JikJvUEeN-3" value="&lt;font style=&quot;font-size: 14px&quot;&gt;&lt;b&gt;SEARCHING &amp;amp; REPORTING&lt;/b&gt;&lt;br&gt;&lt;/font&gt;" style="whiteSpace=wrap;html=1;sketch=0;verticalAlign=top;fillColor=#dae8fc;strokeColor=#6c8ebf;gradientColor=#7ea6e0;" vertex="1" parent="1">
          <mxGeometry x="10" y="10" width="850" height="130" as="geometry" />
        </mxCell>
        <mxCell id="Nquj7XKxTz-JikJvUEeN-5" value="&lt;b&gt;USER INTERFACE&lt;/b&gt;" style="whiteSpace=wrap;html=1;sketch=0;fontSize=14;verticalAlign=top;fillColor=#dae8fc;strokeColor=#6c8ebf;gradientColor=#7ea6e0;" vertex="1" parent="1">
          <mxGeometry x="870" y="10" width="290" height="1220" as="geometry" />
        </mxCell>
        <mxCell id="Nquj7XKxTz-JikJvUEeN-6" value="&lt;b&gt;Web Client&lt;/b&gt;" style="rounded=1;whiteSpace=wrap;html=1;sketch=0;fontSize=14;gradientColor=none;verticalAlign=top;glass=0;shadow=0;dashed=1;dashPattern=1 2;" vertex="1" parent="1">
          <mxGeometry x="880" y="60" width="270" height="290" as="geometry" />
        </mxCell>
        <mxCell id="Nquj7XKxTz-JikJvUEeN-8" value="&lt;b&gt;Mobile Client&lt;/b&gt;" style="rounded=1;whiteSpace=wrap;html=1;sketch=0;fontSize=14;gradientColor=none;verticalAlign=top;glass=0;shadow=0;dashed=1;dashPattern=1 2;" vertex="1" parent="1">
          <mxGeometry x="880" y="360" width="270" height="290" as="geometry" />
        </mxCell>
        <mxCell id="Nquj7XKxTz-JikJvUEeN-10" value="&lt;b&gt;Outlook Client&lt;br&gt;&lt;font style=&quot;font-size: 12px&quot;&gt;D365 App for Outlook&lt;/font&gt;&lt;br&gt;&lt;/b&gt;" style="rounded=1;whiteSpace=wrap;html=1;sketch=0;fontSize=14;gradientColor=none;verticalAlign=top;glass=0;shadow=0;dashed=1;dashPattern=1 2;" vertex="1" parent="1">
          <mxGeometry x="880" y="670" width="270" height="290" as="geometry" />
        </mxCell>
        <mxCell id="Nquj7XKxTz-JikJvUEeN-11" value="&lt;font style=&quot;font-size: 14px&quot;&gt;&lt;b&gt;ADMINISTRATION&lt;/b&gt;&lt;br&gt;&lt;/font&gt;" style="whiteSpace=wrap;html=1;sketch=0;verticalAlign=top;fillColor=#dae8fc;strokeColor=#6c8ebf;gradientColor=#7ea6e0;" vertex="1" parent="1">
          <mxGeometry x="80" y="1240" width="1080" height="130" as="geometry" />
        </mxCell>
        <mxCell id="Nquj7XKxTz-JikJvUEeN-14" value="Core" parent="0" />
        <mxCell id="Nquj7XKxTz-JikJvUEeN-15" value="Contacts" style="rounded=1;whiteSpace=wrap;html=1;shadow=0;glass=0;sketch=0;fontSize=12;fillColor=#d5e8d4;strokeColor=#82b366;gradientColor=#97d077;" vertex="1" parent="Nquj7XKxTz-JikJvUEeN-14">
          <mxGeometry x="200" y="150" width="250" height="60" as="geometry" />
        </mxCell>
        <mxCell id="Nquj7XKxTz-JikJvUEeN-16" value="Accounts" style="rounded=1;whiteSpace=wrap;html=1;shadow=0;glass=0;sketch=0;fontSize=12;fillColor=#d5e8d4;strokeColor=#82b366;gradientColor=#97d077;" vertex="1" parent="Nquj7XKxTz-JikJvUEeN-14">
          <mxGeometry x="480" y="150" width="240" height="60" as="geometry" />
        </mxCell>
        <mxCell id="Nquj7XKxTz-JikJvUEeN-17" value="Activities &amp; Collaboration" style="" parent="0" />
        <mxCell id="Nquj7XKxTz-JikJvUEeN-18" value="Activities ( Visible on Timeline)" style="rounded=1;whiteSpace=wrap;html=1;shadow=0;glass=0;sketch=0;fontSize=12;fillColor=#fff2cc;strokeColor=#d6b656;gradientColor=#ffd966;" vertex="1" parent="Nquj7XKxTz-JikJvUEeN-17">
          <mxGeometry x="200" y="220" width="520" height="60" as="geometry" />
        </mxCell>
        <mxCell id="Nquj7XKxTz-JikJvUEeN-19" value="Documents &amp;amp; Collaboration" style="rounded=1;whiteSpace=wrap;html=1;shadow=0;glass=0;sketch=0;fontSize=12;fillColor=#fff2cc;strokeColor=#d6b656;gradientColor=#ffd966;" vertex="1" parent="Nquj7XKxTz-JikJvUEeN-17">
          <mxGeometry x="730" y="150" width="120" height="130" as="geometry" />
        </mxCell>
        <mxCell id="Nquj7XKxTz-JikJvUEeN-23" value="Customer Service Features" parent="0" />
        <mxCell id="Nquj7XKxTz-JikJvUEeN-24" value="Insights &amp;amp; Analytics" style="rounded=1;whiteSpace=wrap;html=1;shadow=0;glass=0;sketch=0;fontSize=12;verticalAlign=top;fontStyle=1;fillColor=#e6d0de;strokeColor=#996185;gradientColor=#d5739d;" vertex="1" parent="Nquj7XKxTz-JikJvUEeN-23">
          <mxGeometry x="10" y="150" width="180" height="200" as="geometry" />
        </mxCell>
        <mxCell id="Nquj7XKxTz-JikJvUEeN-25" value="Queues" style="rounded=1;whiteSpace=wrap;html=1;shadow=0;glass=0;sketch=0;fontSize=12;verticalAlign=top;fontStyle=1;fillColor=#e6d0de;strokeColor=#996185;gradientColor=#d5739d;" vertex="1" parent="Nquj7XKxTz-JikJvUEeN-23">
          <mxGeometry x="10" y="360" width="180" height="200" as="geometry" />
        </mxCell>
        <mxCell id="Nquj7XKxTz-JikJvUEeN-26" value="Cases" style="rounded=1;whiteSpace=wrap;html=1;shadow=0;glass=0;sketch=0;fontSize=12;verticalAlign=top;fontStyle=1;fillColor=#e6d0de;strokeColor=#996185;gradientColor=#d5739d;" vertex="1" parent="Nquj7XKxTz-JikJvUEeN-23">
          <mxGeometry x="200" y="290" width="320" height="270" as="geometry" />
        </mxCell>
        <mxCell id="Nquj7XKxTz-JikJvUEeN-27" value="Knowledge Base Articles" style="rounded=1;whiteSpace=wrap;html=1;shadow=0;glass=0;sketch=0;fontSize=12;verticalAlign=top;fontStyle=1;fillColor=#e6d0de;strokeColor=#996185;gradientColor=#d5739d;" vertex="1" parent="Nquj7XKxTz-JikJvUEeN-23">
          <mxGeometry x="530" y="290" width="320" height="270" as="geometry" />
        </mxCell>
        <mxCell id="Nquj7XKxTz-JikJvUEeN-28" value="Identify" style="html=1;shadow=1;dashed=0;align=center;verticalAlign=middle;shape=mxgraph.arrows2.arrow;dy=0;dx=10;notch=10;glass=0;sketch=0;fontSize=12;gradientColor=none;strokeColor=#FF3333;" vertex="1" parent="Nquj7XKxTz-JikJvUEeN-23">
          <mxGeometry x="210" y="330" width="100" height="30" as="geometry" />
        </mxCell>
        <mxCell id="Nquj7XKxTz-JikJvUEeN-29" value="Research" style="html=1;shadow=1;dashed=0;align=center;verticalAlign=middle;shape=mxgraph.arrows2.arrow;dy=0;dx=10;notch=10;glass=0;sketch=0;fontSize=12;gradientColor=none;strokeColor=#FFFF33;" vertex="1" parent="Nquj7XKxTz-JikJvUEeN-23">
          <mxGeometry x="310" y="330" width="100" height="30" as="geometry" />
        </mxCell>
        <mxCell id="Nquj7XKxTz-JikJvUEeN-30" value="Resolve" style="html=1;shadow=1;dashed=0;align=center;verticalAlign=middle;shape=mxgraph.arrows2.arrow;dy=0;dx=10;notch=10;glass=0;sketch=0;fontSize=12;gradientColor=none;strokeColor=#99FF33;" vertex="1" parent="Nquj7XKxTz-JikJvUEeN-23">
          <mxGeometry x="410" y="330" width="100" height="30" as="geometry" />
        </mxCell>
        <mxCell id="Nquj7XKxTz-JikJvUEeN-32" value="Author" style="html=1;shadow=1;dashed=0;align=center;verticalAlign=middle;shape=mxgraph.arrows2.arrow;dy=0;dx=10;notch=10;glass=0;sketch=0;fontSize=12;gradientColor=none;strokeColor=#FF3333;" vertex="1" parent="Nquj7XKxTz-JikJvUEeN-23">
          <mxGeometry x="540" y="330" width="100" height="30" as="geometry" />
        </mxCell>
        <mxCell id="Nquj7XKxTz-JikJvUEeN-33" value="Review" style="html=1;shadow=1;dashed=0;align=center;verticalAlign=middle;shape=mxgraph.arrows2.arrow;dy=0;dx=10;notch=10;glass=0;sketch=0;fontSize=12;gradientColor=none;strokeColor=#FFFF33;" vertex="1" parent="Nquj7XKxTz-JikJvUEeN-23">
          <mxGeometry x="640" y="330" width="100" height="30" as="geometry" />
        </mxCell>
        <mxCell id="Nquj7XKxTz-JikJvUEeN-34" value="Publish" style="html=1;shadow=1;dashed=0;align=center;verticalAlign=middle;shape=mxgraph.arrows2.arrow;dy=0;dx=10;notch=10;glass=0;sketch=0;fontSize=12;gradientColor=none;strokeColor=#99FF33;" vertex="1" parent="Nquj7XKxTz-JikJvUEeN-23">
          <mxGeometry x="740" y="330" width="100" height="30" as="geometry" />
        </mxCell>
      </root>
    </mxGraphModel>
  </diagram>
</mxfile>
